<svg id="Capa_1" enable-background="new 0 0 513.333 513.333" height="512" viewBox="0 0 513.333 513.333" width="512" xmlns="http://www.w3.org/2000/svg"><g><g><path d="m442.26 172.599-72.351 72.351-72.351-72.351-21.213 21.213 71.064 71.063v20c0 11.574-9.383 20.958-20.958 20.958h-18.951l-31.5 10v35h56.409c33.137 0 60-26.863 60-60v-25.958l71.064-71.063z" fill="#ce857a"/><path d="m286 453.213v-102.38-11.288c0-14.463 8.387-27.613 21.5-33.712h-87.134c-11.575 0-20.958-9.383-20.958-20.958l71.064-71.063-21.213-21.213-72.351 72.351-72.351-72.351-21.213 21.213 71.064 71.063v5.958c0 33.137 26.863 60 60 60h11.592v102.38c-17.929 10.375-30 29.749-30 51.953h30 60 30c0-22.204-12.071-41.577-30-51.953z" fill="#bd7669"/></g><g><path d="m334.674 8.167h-147.348c-38.798 0-70.541 31.744-70.541 70.541s31.744 70.541 70.541 70.541h147.348c38.798 0 70.541-31.744 70.541-70.541s-31.743-70.541-70.541-70.541z" fill="#18c08b"/><path d="m468.056 124.064h-40c20.778 0 37.778-17 37.778-37.778s-17-37.778-37.778-37.778h-181.704c-20.778 0-37.778 17-37.778 37.778l.104 75.556c0 20.778 17 37.778 37.778 37.778h221.599c20.778 0 37.778-17 37.778-37.778s-17-37.778-37.777-37.778z" fill="#30cd9c"/><path d="m208.574 86.286h-107.741c-20.778 0-37.778 17-37.778 37.778h-17.777c-20.778 0-37.778 17-37.778 37.778s17 37.778 37.778 37.778h80.741c20.778 0 37.778-17 37.778-37.778h44.778c20.778 0 37.778-17 37.778-37.778s-17.001-37.778-37.779-37.778z" fill="#18c08b"/></g><g><path d="m307.413 184.452c-1.342-19.952-18.428-35.203-38.425-35.203h-70.969c-16.271 0-31.966 5.493-44.645 15.423v45.488c9.377 9.377 22.095 14.645 35.355 14.645h80.993c21.63 0 39.166-18.423 37.691-40.353z" fill="#30cd9c"/><path d="m160.241 187.027c0-20.778 17-37.778 37.778-37.778h-109.266c-19.997 0-37.084 15.251-38.426 35.203-1.475 21.93 16.061 40.353 37.691 40.353h110c-20.777 0-37.777-17-37.777-37.778z" fill="#18c08b"/></g><g><path d="m211.839 121.667v-12c0-4.143-3.358-7.5-7.5-7.5s-7.5 3.357-7.5 7.5v12c0 4.143 3.358 7.5 7.5 7.5s7.5-3.358 7.5-7.5z"/><path d="m336.736 121.667v-12c0-4.143-3.357-7.5-7.5-7.5-4.142 0-7.5 3.357-7.5 7.5v12c0 4.143 3.358 7.5 7.5 7.5 4.143 0 7.5-3.358 7.5-7.5z"/><path d="m288.906 126.236c2.721-3.122 2.396-7.86-.727-10.581-3.124-2.721-7.86-2.397-10.582.728-5.725 6.569-15.899 6.564-21.62 0-2.721-3.123-7.458-3.448-10.582-.728s-3.448 7.459-.727 10.581c11.705 13.431 32.546 13.418 44.238 0z"/><path d="m468.056 116.564h-6.363c7.232-8.027 11.641-18.648 11.641-30.278 0-24.966-20.312-45.277-45.277-45.277h-25.129c-13.711-24.652-39.992-40.342-68.253-40.342h-147.349c-16.494 0-32.285 5.133-45.665 14.843-3.352 2.434-4.098 7.123-1.665 10.476 2.433 3.351 7.122 4.097 10.475 1.665 10.802-7.84 23.545-11.983 36.854-11.983h147.348c19.904 0 38.596 9.652 50.406 25.342h-138.727c-14.328 0-27.977 6.942-36.513 18.571-2.451 3.339-1.731 8.032 1.608 10.483 3.339 2.45 8.032 1.732 10.484-1.608 5.721-7.793 14.85-12.446 24.421-12.446h181.704c16.695 0 30.277 13.582 30.277 30.277s-13.582 30.278-30.277 30.278c-4.143 0-7.5 3.357-7.5 7.5s3.357 7.5 7.5 7.5h40c16.695 0 30.277 13.583 30.277 30.278s-13.582 30.277-30.277 30.277h-153.349c.299-2.682.375-5.412.189-8.171-.277-4.133-3.847-7.239-7.986-6.98-4.133.278-7.258 3.854-6.979 7.986 1.188 17.664-13.022 32.351-30.208 32.351h-181.704c-17.39 0-31.386-14.825-30.208-32.351.278-4.133-2.847-7.708-6.979-7.986-4.135-.252-7.709 2.848-7.986 6.98-.182 2.708-.1 5.411.204 8.08-15.658-1.146-28.05-14.242-28.05-30.187 0-16.695 13.583-30.278 30.278-30.278h17.778c4.142 0 7.5-3.357 7.5-7.5 0-16.695 13.583-30.278 30.278-30.278h27.741c4.142 0 7.5-3.357 7.5-7.5s-3.358-7.5-7.5-7.5h-4.283c0-.052-.004-.105-.004-.157 0-10.908 2.89-21.689 8.357-31.178 2.068-3.589.835-8.175-2.754-10.242-3.588-2.07-8.175-.835-10.243 2.754-6.777 11.762-10.359 25.132-10.36 38.666 0 .052.002.105.002.157h-8.455c-22.413 0-41.073 16.368-44.657 37.778h-10.9c-24.966 0-45.278 20.311-45.278 45.278 0 24.966 20.312 45.277 45.278 45.277h2.236c7.853 15.799 23.845 25.186 40.504 25.186h3.212l55.679 55.677v2.852c0 37.22 30.28 67.5 67.5 67.5h4.091v90.722c-18.609 12.468-30 33.58-30 56.111 0 4.143 3.358 7.5 7.5 7.5h120c4.142 0 7.5-3.357 7.5-7.5 0-22.531-11.391-43.644-30-56.111v-41.007c0-4.143-3.358-7.5-7.5-7.5s-7.5 3.357-7.5 7.5v45.165c0 2.677 1.427 5.15 3.744 6.491 14.002 8.103 23.418 22.222 25.712 37.962h-103.912c2.294-15.74 11.71-29.859 25.712-37.962 2.317-1.341 3.744-3.814 3.744-6.491v-102.38c0-4.143-3.358-7.5-7.5-7.5h-11.591c-28.949 0-52.5-23.552-52.5-52.5v-5.958c0-1.989-.79-3.896-2.197-5.304l-47.268-47.267h21.212l37.949 37.948c2.93 2.929 7.678 2.928 10.606 0l37.949-37.948h21.212l-47.267 47.267c-7.147 7.149 2.808 33.762 26.26 33.762h106.085c15.691 0 28.458-12.767 28.458-28.458 0-21.371.653-22.452-2.196-25.304l-46.22-46.219c1.437-1.989 2.701-4.072 3.783-6.233h11.196l43.134 43.134c2.931 2.929 7.678 2.928 10.607 0l43.134-43.134h21.212l-52.453 52.452c-2.909 2.911-2.196 3.432-2.196 31.262 0 28.948-23.552 52.5-52.5 52.5h-46.409c-4.142 0-7.5 3.357-7.5 7.5v27.215c0 4.143 3.358 7.5 7.5 7.5s7.5-3.357 7.5-7.5v-19.715h38.909c37.22 0 67.5-30.28 67.5-67.5v-22.852l60.864-60.862h7.282c24.966 0 45.277-20.312 45.277-45.277.001-24.968-20.311-45.279-45.276-45.279zm-291.147 137.779-22.038-22.038h44.077zm163 30.532c0 7.421-6.037 13.458-13.458 13.458h-106.085c-6.457 0-11.866-4.57-13.162-10.646l55.383-55.382h7.135c9.378 0 18.529-2.986 26.133-8.376l44.054 44.053zm30-50.532-27.224-27.224h54.447z"/></g></g></svg>